<?xml version="1.0" encoding="iso-8859-1"?>
<!-- Generator: Adobe Illustrator 19.0.0, SVG Export Plug-In . SVG Version: 6.00 Build 0)  -->
<svg version="1.1" id="Capa_1" xmlns="http://www.w3.org/2000/svg" xmlns:xlink="http://www.w3.org/1999/xlink" x="0px" y="0px"
	 viewBox="0 0 512 512" style="enable-background:new 0 0 512 512;" xml:space="preserve">
<path style="fill:#ED5151;" d="M467.285,180h-357.57C90.544,180,75,196.119,75,216v234c0,19.881,15.544,36,34.715,36h357.569
	C486.456,486,502,469.881,502,450V216C502,196.119,486.456,180,467.285,180z"/>
<rect x="76" y="146" style="fill:#FFFFFF;" width="40" height="340"/>
<g>
	<rect x="97" y="146" style="fill:#E3F2FF;" width="19" height="340"/>
	<rect x="396" y="146" style="fill:#E3F2FF;" width="40" height="340"/>
</g>
<path style="fill:#57555C;" d="M326,26H220c-27.61,0-50,22.39-50,50v70h6V86c0-11.05,8.95-20,20-20h34h86c11.05,0,20,8.95,20,20v60
	h34h6V76C376,48.39,353.61,26,326,26z"/>
<polygon style="fill:#FFFFFF;" points="254,312 254,252 286,252 286,226 226,226 226,286 166,286 166,346 194,346 194,312 "/>
<polygon style="fill:#E3F2FF;" points="314,286 286,286 286,252 254,252 254,312 194,312 194,346 226,346 226,372 226,406 254,406 
	286,406 286,346 346,346 346,312 346,286 "/>
<path d="M396.25,236c-5.52,0-10,4.48-10,10s4.48,10,10,10s10-4.48,10-10S401.77,236,396.25,236z"/>
<path d="M116.25,236c-5.52,0-10,4.48-10,10s4.48,10,10,10s10-4.48,10-10S121.77,236,116.25,236z"/>
<path d="M346.25,276h-50v-50c0-5.522-4.478-10-10-10h-60c-5.522,0-10,4.478-10,10v50h-50c-5.522,0-10,4.478-10,10v60
	c0,5.522,4.478,10,10,10h50v50c0,5.522,4.478,10,10,10h60c5.522,0,10-4.478,10-10v-50h50c5.522,0,10-4.478,10-10v-60
	C356.25,280.478,351.772,276,346.25,276z M336.25,336h-50c-5.522,0-10,4.478-10,10v50h-40v-50c0-5.522-4.478-10-10-10h-50v-40h50
	c5.522,0,10-4.478,10-10v-50h40v50c0,5.522,4.478,10,10,10h50V336z"/>
<path d="M462,136h-76V76c0-33.084-26.916-60-60-60H186c-33.084,0-60,26.916-60,60v60H50c-27.57,0-50,22.43-50,50v260
	c0,27.57,22.43,50,50,50h412c27.57,0,50-22.43,50-50V186C512,158.43,489.57,136,462,136z M396,276c-5.522,0-10,4.478-10,10v190H126
	V286c0-5.522-4.478-10-10-10s-10,4.478-10,10v190H86V156h20v50c0,5.522,4.478,10,10,10s10-4.478,10-10v-50h260v50
	c0,5.522,4.478,10,10,10s10-4.478,10-10v-50h20v320h-20V286C406,280.478,401.522,276,396,276z M326,136H186V86
	c0-5.514,4.486-10,10-10h120c5.514,0,10,4.486,10,10V136z M146,76c0-22.056,17.944-40,40-40h140c22.056,0,40,17.944,40,40v60h-20V86
	c0-16.542-13.458-30-30-30H196c-16.542,0-30,13.458-30,30v50h-20V76z M20,446V186c0-16.542,13.458-30,30-30h16v320H50
	C33.458,476,20,462.542,20,446z M492,446c0,16.542-13.458,30-30,30h-16V156h16c16.542,0,30,13.458,30,30V446z"/>
<g>
</g>
<g>
</g>
<g>
</g>
<g>
</g>
<g>
</g>
<g>
</g>
<g>
</g>
<g>
</g>
<g>
</g>
<g>
</g>
<g>
</g>
<g>
</g>
<g>
</g>
<g>
</g>
<g>
</g>
</svg>
