<svg height="511pt" viewBox="-41 1 511 511.999" width="511pt" xmlns="http://www.w3.org/2000/svg"><path d="m263.34375 188.015625c0 42.675781-34.59375 77.269531-77.269531 77.269531-42.679688 0-77.273438-34.59375-77.273438-77.269531s34.59375-77.273437 77.273438-77.273437c42.675781 0 77.269531 34.597656 77.269531 77.273437zm0 0" fill="#fcdb67"/><path d="m186.074219 133.820312c9.75 0 18.894531 2.601563 26.808593 7.125v-25.417968c-8.351562-3.089844-17.382812-4.785156-26.808593-4.785156-9.429688 0-18.457031 1.695312-26.8125 4.785156v25.421875c7.914062-4.527344 17.0625-7.128907 26.8125-7.128907zm0 0" fill="#f7931e"/><path d="m186.074219 242.210938c-9.75 0-18.898438-2.601563-26.8125-7.128907v25.421875c8.355469 3.089844 17.382812 4.785156 26.8125 4.785156 9.425781 0 18.457031-1.695312 26.808593-4.785156v-25.417968c-7.914062 4.523437-17.058593 7.125-26.808593 7.125zm0 0" fill="#f7931e"/><path d="m241.269531 188.015625c0 30.480469-24.710937 55.195313-55.195312 55.195313s-55.195313-24.714844-55.195313-55.195313c0-30.484375 24.710938-55.195313 55.195313-55.195313s55.195312 24.710938 55.195312 55.195313zm0 0" fill="#ffc502"/><path d="m208.996094 198.632812c0-9.988281-8.128906-18.117187-18.117188-18.117187h-9.609375c-1.71875 0-3.117187-1.398437-3.117187-3.121094 0-1.71875 1.398437-3.117187 3.117187-3.117187h15.171875c4.140625 0 7.5-3.355469 7.5-7.5 0-4.140625-3.359375-7.5-7.5-7.5h-2.867187v-3.117188c0-4.140625-3.355469-7.5-7.5-7.5-4.140625 0-7.5 3.359375-7.5 7.5v3.339844c-8.710938 1.308594-15.421875 8.824219-15.421875 17.894531 0 9.992188 8.125 18.121094 18.117187 18.121094h9.609375c1.71875 0 3.117188 1.398437 3.117188 3.117187 0 1.722657-1.398438 3.121094-3.117188 3.121094h-17.699218c-4.144532 0-7.5 3.355469-7.5 7.5 0 4.144532 3.355468 7.5 7.5 7.5h5.394531v3.117188c0 4.144531 3.355469 7.5 7.5 7.5s7.5-3.355469 7.5-7.5v-3.339844c8.710937-1.308594 15.421875-8.824219 15.421875-17.898438zm0 0" fill="#b2762f"/><path d="m428.621094 276.609375c0 42.675781-34.597656 77.273437-77.273438 77.273437-42.679687 0-77.273437-34.597656-77.273437-77.273437s34.59375-77.273437 77.273437-77.273437c42.675782 0 77.273438 34.597656 77.273438 77.273437zm0 0" fill="#fcdb67"/><path d="m351.34375 330.804688c-9.75 0-18.894531-2.601563-26.808594-7.125v25.421874c8.351563 3.089844 17.382813 4.78125 26.808594 4.78125 9.429688 0 18.457031-1.691406 26.8125-4.78125v-25.421874c-7.914062 4.523437-17.0625 7.125-26.8125 7.125zm0 0" fill="#f7931e"/><path d="m351.34375 222.417969c9.75 0 18.898438 2.601562 26.8125 7.125v-25.421875c-8.355469-3.089844-17.382812-4.78125-26.8125-4.78125-9.425781 0-18.457031 1.691406-26.808594 4.78125v25.421875c7.914063-4.523438 17.058594-7.125 26.808594-7.125zm0 0" fill="#f7931e"/><path d="m406.539062 276.609375c0 30.484375-24.710937 55.195313-55.191406 55.195313-30.484375 0-55.195312-24.710938-55.195312-55.195313 0-30.480469 24.710937-55.195313 55.195312-55.195313 30.480469 0 55.191406 24.714844 55.191406 55.195313zm0 0" fill="#ffc502"/><path d="m374.265625 287.230469c0-9.992188-8.125-18.121094-18.113281-18.121094h-9.609375c-1.71875 0-3.121094-1.398437-3.121094-3.117187 0-1.722657 1.402344-3.121094 3.121094-3.121094h15.167969c4.144531 0 7.5-3.355469 7.5-7.5 0-4.140625-3.355469-7.5-7.5-7.5h-2.863282v-3.113282c0-4.144531-3.355468-7.5-7.5-7.5-4.140625 0-7.5 3.355469-7.5 7.5v3.339844c-8.714844 1.308594-15.425781 8.820313-15.425781 17.894532 0 9.988281 8.128906 18.117187 18.121094 18.117187h9.609375c1.71875 0 3.113281 1.398437 3.113281 3.121094 0 1.71875-1.394531 3.117187-3.113281 3.117187h-17.699219c-4.144531 0-7.5 3.355469-7.5 7.5 0 4.144532 3.355469 7.5 7.5 7.5h5.394531v3.121094c0 4.140625 3.355469 7.5 7.5 7.5 4.144532 0 7.5-3.359375 7.5-7.5v-3.34375c8.710938-1.308594 15.417969-8.824219 15.417969-17.894531zm0 0" fill="#b2762f"/><path d="m368.84375 120.941406c0 21.679688-17.574219 39.25-39.25 39.25-21.679688 0-39.25-17.570312-39.25-39.25 0-21.675781 17.570312-39.25 39.25-39.25 21.675781 0 39.25 17.574219 39.25 39.25zm0 0" fill="#ffc502"/><path d="m346.144531 120.941406c0 9.140625-7.410156 16.550782-16.550781 16.550782s-16.550781-7.410157-16.550781-16.550782 7.410156-16.550781 16.550781-16.550781 16.550781 7.410156 16.550781 16.550781zm0 0" fill="#fcdb67"/><path d="m274.277344 39.25c0 21.675781-17.570313 39.246094-39.246094 39.246094-21.679688 0-39.25-17.570313-39.25-39.246094s17.570312-39.25 39.25-39.25c21.675781 0 39.246094 17.574219 39.246094 39.25zm0 0" fill="#ffc502"/><path d="m251.582031 39.25c0 9.140625-7.410156 16.550781-16.550781 16.550781-9.144531 0-16.554688-7.410156-16.554688-16.550781s7.410157-16.554688 16.554688-16.554688c9.140625 0 16.550781 7.414063 16.550781 16.554688zm0 0" fill="#fcdb67"/><path d="m279.824219 421.578125c-2.679688 2.675781-6.253907 4.148437-10.066407 4.148437-3.816406 0-7.390624-1.472656-10.066406-4.148437l-6.542968-6.539063h-34.550782c-7.929687 0-18.890625-4.101562-25.371094-9.355468l28.578126 26.589844c6.511718 4.128906 15.449218 7.105468 22.203124 7.105468h126.617188v-8.929687c0-8.496094-6.914062-15.410157-15.410156-15.410157h-68.851563zm0 0" fill="#ffd5b3"/><path d="m407.367188 463.066406h-137.015626c-8.519531 0-20.527343-4.722656-26.765624-10.527344l-60.605469-56.390624c-2.097657-1.949219-3.285157-4.679688-3.285157-7.542969v-2.546875c0-5.691406 4.609376-10.304688 10.300782-10.304688h18.125c2.726562 0 5.347656 1.085938 7.28125 3.015625l43.558594 43.535157c2.871093 2.871093 6.703124 4.453124 10.796874 4.453124 4.085938 0 7.921876-1.582031 10.792969-4.453124l16.367188-16.359376c2.871093-2.867187 4.453125-6.699218 4.453125-10.785156 0-4.089844-1.582032-7.921875-4.453125-10.789062l-65.59375-65.558594c-5.953125-5.949219-17.644531-10.789062-26.058594-10.789062h-56.441406v139.371093l56.757812 53.957031c6.175781 5.871094 18.132813 10.648438 26.652344 10.648438h175.132813c8.519531 0 15.453124-6.933594 15.453124-15.453125v-18.027344c0-8.523437-6.933593-15.453125-15.453124-15.453125zm0 0" fill="#ffb98a"/><path d="m221.804688 432.273438 21.78125 20.265624c6.238281 5.804688 18.242187 10.527344 26.765624 10.527344h125.683594v-8.28125c0-8.496094-6.914062-15.40625-15.410156-15.40625h-136.617188c-6.753906 0-15.691406-2.980468-22.203124-7.105468zm0 0" fill="#f7c39f"/><path d="m407.367188 463.066406h-137.015626c-8.519531 0-20.527343-4.722656-26.765624-10.527344l-60.605469-56.390624c-2.097657-1.949219-3.285157-4.679688-3.285157-7.542969v-2.546875c0-5.691406 4.609376-10.304688 10.300782-10.304688h18.125c2.726562 0 5.347656 1.085938 7.28125 3.015625l43.558594 43.535157c2.871093 2.871093 6.703124 4.453124 10.796874 4.453124 4.085938 0 7.921876-1.582031 10.792969-4.453124l16.367188-16.359376c2.871093-2.867187 4.453125-6.699218 4.453125-10.785156 0-4.089844-1.582032-7.921875-4.453125-10.789062l-65.59375-65.558594c-5.953125-5.949219-17.644531-10.789062-26.058594-10.789062h-56.441406v139.371093l56.757812 53.957031c6.175781 5.871094 18.132813 10.648438 26.652344 10.648438h175.132813c8.519531 0 15.453124-6.933594 15.453124-15.453125v-18.027344c0-8.523437-6.933593-15.453125-15.453124-15.453125zm0 0" fill="#ffb98a"/><path d="m407.367188 463.066406h-137.015626c-8.519531 0-20.527343-4.722656-26.765624-10.527344l-60.605469-56.390624c-2.097657-1.949219-3.285157-4.679688-3.285157-7.542969v-2.546875c0-5.691406 4.609376-10.304688 10.300782-10.304688h18.125c2.726562 0 5.347656 1.085938 7.28125 3.015625l43.558594 43.535157c2.871093 2.871093 6.703124 4.453124 10.796874 4.453124 4.085938 0 7.921876-1.582031 10.792969-4.453124l16.367188-16.359376c2.871093-2.867187 4.453125-6.699218 4.453125-10.785156 0-4.089844-1.582032-7.921875-4.453125-10.789062l-65.59375-65.558594c-5.953125-5.949219-17.644531-10.789062-26.058594-10.789062h-56.441406v139.371093l56.757812 53.957031c6.175781 5.871094 18.132813 10.648438 26.652344 10.648438h175.132813c8.519531 0 15.453124-6.933594 15.453124-15.453125v-18.027344c0-8.523437-6.933593-15.453125-15.453124-15.453125zm0 0" fill="#ffb98a"/><path d="m78.515625 297.449219h-72.707031c-2.921875 0-5.308594 2.386719-5.308594 5.304687v154.0625c0 2.917969 2.386719 5.304688 5.308594 5.304688h72.707031zm0 0" fill="#046699"/><path d="m82.851562 286.617188c-2.921874 0-5.3125 2.390624-5.3125 5.308593v175.71875c0 2.917969 2.390626 5.304688 5.3125 5.304688h61.644532c2.917968 0 5.304687-2.386719 5.304687-5.304688v-175.71875c0-2.917969-2.386719-5.308593-5.304687-5.308593zm0 0" fill="#083e63"/><path d="m112.488281 448.347656c-4.269531 0-7.726562-3.457031-7.726562-7.726562v-13.234375c0-4.265625 3.460937-7.726563 7.726562-7.726563s7.726563 3.460938 7.726563 7.726563v13.234375c0 4.269531-3.460938 7.726562-7.726563 7.726562zm0 0" fill="#046699"/></svg>