<svg height="512pt" viewBox="-60 0 512 512" width="512pt" xmlns="http://www.w3.org/2000/svg"><path d="m280.273438 103.601562h-240.234376c-17.691406 0-32.03125 14.339844-32.03125 32.03125v136.132813c0 17.691406 14.339844 32.03125 32.03125 32.03125h8.007813v120.117187c0 44.226563 35.851563 80.078126 80.078125 80.078126v-120.117188c0-17.691406 14.339844-32.03125 32.03125-32.03125s32.03125 14.339844 32.03125 32.03125v120.117188c44.226562 0 80.078125-35.851563 80.078125-80.078126v-120.117187h8.007813c17.691406 0 32.03125-14.339844 32.03125-32.03125v-136.132813c0-17.691406-14.339844-32.03125-32.03125-32.03125zm0 0" fill="#fff"/><g fill="#c2deed"><path d="m72.070312 423.914062v-120.117187h-24.023437v120.117187c0 44.226563 35.851563 80.078126 80.078125 80.078126v-3.671876c-32.488281-10.203124-56.054688-40.550781-56.054688-76.40625zm0 0"/><path d="m216.210938 383.875c0-17.691406-14.339844-32.03125-32.03125-32.03125-4.25 0-8.300782.835938-12.011719 2.335938 11.738281 4.753906 20.019531 16.253906 20.019531 29.695312v120.117188c8.371094 0 16.4375-1.289063 24.023438-3.671876zm0 0"/><path d="m32.03125 271.765625v-136.132813c0-17.691406 14.339844-32.03125 32.03125-32.03125h-24.023438c-17.691406 0-32.03125 14.339844-32.03125 32.03125v136.132813c0 17.691406 14.339844 32.03125 32.03125 32.03125h24.023438c-17.691406 0-32.03125-14.339844-32.03125-32.03125zm0 0"/></g><path d="m384.375 87.585938c0 44.226562-35.851562 80.078124-80.078125 80.078124s-80.078125-35.851562-80.078125-80.078124c0-44.226563 35.851562-80.078126 80.078125-80.078126s80.078125 35.851563 80.078125 80.078126zm0 0" fill="#91e2ff"/><path d="m336.328125 120.117188h16.015625v15.015624h-16.015625zm0 0" fill="#fff"/><path d="m256.25 40.039062h16.015625v15.015626h-16.015625zm0 0" fill="#fff"/><path d="m320.3125 151.648438c-44.226562 0-80.078125-35.851563-80.078125-80.078126 0-18.027343 5.960937-34.664062 16.015625-48.046874-19.449219 14.609374-32.03125 37.863281-32.03125 64.0625 0 44.226562 35.851562 80.078124 80.078125 80.078124 26.199219 0 49.453125-12.582031 64.0625-32.03125-13.382813 10.054688-30.019531 16.015626-48.046875 16.015626zm0 0" fill="#22adf2"/><path d="m288.28125 71.570312h-24.023438v32.03125h24.023438v24.023438h32.03125v-24.023438h24.023438v-32.03125h-24.023438v-24.023437h-32.03125zm0 0" fill="#ff7aab"/><path d="m304.296875 271.765625c0 13.523437-10.5 25.023437-24.023437 25.023437h-48.046876v15.015626h32.03125v112.109374c0 37.480469-28.027343 68.417969-65.0625 72.183594v-112.222656c0-21.800781-17.738281-39.539062-39.539062-39.539062s-39.539062 17.738281-39.539062 39.539062v112.222656c-36.035157-3.769531-65.0625-34.703125-65.0625-72.183594v-112.109374h33.03125v-15.015626h-48.046876c-13.523437 0-25.023437-11.5-25.023437-25.023437v-136.132813c0-13.523437 11.5-24.023437 25.023437-24.023437h160.15625v-15.015625h-160.15625c-21.800781 0-40.039062 17.238281-40.039062 39.039062v136.132813c0 21.800781 18.238281 40.039063 40.039062 40.039063v112.109374c0 48.296876 39.789063 88.085938 88.085938 88.085938h7.007812v-128.125c0-13.523438 11-24.523438 24.523438-24.523438s24.523438 11 24.523438 24.523438v128.125h8.007812c48.296875 0 87.085938-39.789062 87.085938-88.085938v-112.109374h1c21.800781 0 39.039062-18.238282 39.039062-40.039063v-80.078125h-15.015625zm0 0"/><path d="m120.117188 216.710938h16.015624v15.015624h-16.015624zm0 0"/><path d="m152.148438 216.710938h16.015624v15.015624h-16.015624zm0 0"/><path d="m184.179688 216.710938h16.015624v15.015624h-16.015624zm0 0"/><path d="m304.296875 0c-48.292969 0-87.585937 39.289062-87.585937 87.585938 0 48.292968 39.292968 87.585937 87.585937 87.585937 48.296875 0 87.585937-39.292969 87.585937-87.585937 0-48.296876-39.289062-87.585938-87.585937-87.585938zm0 160.15625c-40.015625 0-72.570313-32.554688-72.570313-72.570312 0-40.015626 32.554688-72.570313 72.570313-72.570313s72.570313 32.554687 72.570313 72.570313c0 40.015624-32.554688 72.570312-72.570313 72.570312zm0 0"/><path d="m327.320312 40.539062h-47.046874v24.023438h-24.023438v47.046875h24.023438v24.023437h47.046874v-24.023437h24.023438v-47.046875h-24.023438zm9.007813 39.039063v17.015625h-24.023437v24.023438h-17.015626v-24.023438h-24.023437v-17.015625h24.023437v-24.023437h17.015626v24.023437zm0 0"/><path d="m240.234375 160.65625h-168.164063c-4.691406 0-9.007812-4.316406-9.007812-9.007812v-8.007813h-15.015625v8.007813c0 12.96875 11.054687 24.023437 24.023437 24.023437h168.164063zm0 0"/></svg>