<svg height="512pt" viewBox="-37 0 512 512" width="512pt" xmlns="http://www.w3.org/2000/svg"><path d="m219.035156 27.808594c-116.828125 0-211.535156 94.707031-211.535156 211.535156 0 .554688.003906 1.109375.007812 1.664062.027344 2.933594 3.09375 4.839844 5.734376 3.5625 18.078124-8.722656 76.777343-32.285156 126.472656 1.3125 1.382812.933594 3.199218.859376 4.566406-.101562 22.703125-15.972656 49.742188-22.582031 74.753906-23.421875 25.007813.839844 52.050782 7.449219 74.75 23.417969 1.367188.960937 3.183594 1.039062 4.570313.105468 49.695312-33.597656 108.390625-10.035156 126.46875-1.3125 2.644531 1.277344 5.707031-.628906 5.738281-3.5625.003906-.554687.007812-1.109374.007812-1.664062-.003906-116.828125-94.710937-211.535156-211.535156-211.535156zm0 0" fill="#f43b45"/><path d="m219.035156 27.808594c-.242187 0-.484375.007812-.726562.007812 90.019531 22.65625 156.824218 106.199219 160.847656 202.34375 20.570312 3.304688 37.382812 10.414063 45.667969 14.410156 2.644531 1.277344 5.707031-.628906 5.734375-3.5625.007812-.554687.007812-1.109374.007812-1.664062 0-116.828125-94.707031-211.535156-211.53125-211.535156zm0 0" fill="#cf3735"/><path d="m141.882812 246.535156c.839844 0 1.679688-.25 2.398438-.757812 22.703125-15.96875 49.742188-22.578125 74.753906-23.417969 25.007813.839844 52.050782 7.449219 74.75 23.417969.71875.507812 1.5625.761718 2.402344.757812.027344-.628906 6.984375-165.503906-77.152344-218.726562-84.136718 53.226562-77.179687 218.101562-77.152344 218.726562zm0 0" fill="#ededed"/><path d="m219.035156 27.808594c32.128906 65.980468 30.726563 157.519531 28.183594 198.023437 16.183594 3.523438 32.238281 9.867188 46.566406 19.945313.71875.507812 1.5625.761718 2.402344.757812.027344-.625 6.984375-165.5-77.152344-218.726562zm0 0" fill="#d6d6d6"/><path d="m274.308594 437.078125c-6.929688.128906-12.355469 6.074219-12.355469 13.007813v13.628906c0 8.152344-6.253906 15.183594-14.398437 15.585937-8.707032.429688-15.929688-6.53125-15.929688-15.148437v-64.945313c0-2.964843-2.402344-5.367187-5.367188-5.367187h-14.449218c-2.964844 0-5.367188 2.402344-5.367188 5.367187v64.1875c0 22.035157 17.347656 40.574219 39.375 41.09375 22.691406.539063 41.320313-17.765625 41.320313-40.335937v-14.484375c0-7.03125-5.765625-12.71875-12.828125-12.589844zm0 0" fill="#a04917"/><path d="m435.132812 203.394531c-.675781-4.089843-4.535156-6.863281-8.621093-6.179687-4.089844.675781-6.855469 4.535156-6.179688 8.621094 1.609375 9.738281 2.515625 19.699218 2.699219 29.65625-21.25-9.328126-72.535156-26.546876-119.203125-1.65625-.121094-16.203126-1.3125-45.6875-7.28125-78.308594-5.21875-28.492188-13.027344-53.546875-23.222656-74.472656-8.679688-17.820313-19.125-32.6875-31.1875-44.441407 77.574219 8.800781 144.21875 61.449219 169.957031 136.535157 1.34375 3.921874 5.605469 6.007812 9.523438 4.664062 3.921874-1.34375 6.007812-5.609375 4.664062-9.527344-29.523438-86.136718-109.203125-144.769531-199.746094-147.847656v-12.9375c0-4.144531-3.359375-7.5-7.5-7.5-4.144531 0-7.5 3.355469-7.5 7.5v12.933594c-55.695312 1.863281-107.785156 24.429687-147.382812 64.03125-41.371094 41.367187-64.152344 96.375-64.152344 154.878906 0 4.96875 2.078125 9.308594 5.441406 11.398438 3.363282 2.085937 7.496094 2.304687 11.0625.582031 16.136719-7.785157 72.398438-30.738281 119.011719.769531 3.910156 2.644531 9.167969 2.574219 13.082031-.179688 21.132813-14.867187 44.746094-20.085937 62.9375-21.605468v156.035156c-6.96875.144531-12.59375 5.859375-12.59375 12.859375v64.191406c0 26.183594 20.949219 47.980469 46.699219 48.589844v.015625c14.933594 0 25.539063-4.8125 34.5625-13.628906 9.308594-9.089844 14.433594-21.242188 14.433594-34.21875v-14.484375c0-5.433594-2.136719-10.527344-6.015625-14.335938-3.878906-3.808593-9.027344-5.816406-14.449219-5.753906-10.871094.203125-19.71875 9.402344-19.71875 20.507813v13.628906c0 4.265625-3.253906 8.09375-7.269531 8.09375-6.210938 0-8.058594-5.542969-8.058594-7.65625v-64.945313c0-7.003906-5.621094-12.71875-12.59375-12.863281v-156.035156c18.195312 1.519531 41.804688 6.742187 62.941406 21.605468 3.851563 2.710938 10.582032 1.835938 13.082032.179688 46.894531-31.085938 102.875-8.554688 119.007812-.769531 3.566406 1.722656 7.703125 1.503906 11.066406-.582031 3.359375-2.089844 5.4375-6.953126 5.4375-11.398438 0-12.054688-.988281-24.152344-2.933594-35.949219zm-420.097656 32.097657c1.910156-102.960938 80.476563-187.519532 180.898438-198.882813-4.769532 4.644531-9.289063 9.765625-13.519532 15.347656-2.324218 3.0625-2.199218 7.464844.5625 10.132813 3.304688 3.195312 8.539063 2.707031 11.222657-.851563 7.410156-9.8125 15.75-18.003906 24.835937-24.410156 38.335938 27.042969 55.28125 80.570313 62.753906 121.398437 5.773438 31.527344 6.925782 59.921876 7.046876 75.5-18.320313-10.597656-47.734376-15.84375-61.800782-17.855468-5.3125-.757813-10.6875-.757813-16 0-14.058594 2.011718-43.449218 7.246094-61.761718 17.832031.277343-26.96875 3.632812-92.242187 27.785156-143.628906 1.761718-3.75.152344-8.21875-3.597656-9.980469-3.75-1.757812-8.21875-.148438-9.980469 3.597656-25.707031 54.703125-29.066407 122.136719-29.253907 150.136719-46.664062-24.882813-97.945312-7.660156-119.191406 1.664063zm232.890625 251.296874c12.085938 0 21.527344-10.734374 21.527344-23.074218v-13.628906c0-2.933594 2.285156-5.507813 4.992187-5.507813 3.746094 0 5.191407 3.710937 5.191407 5.089844v14.484375c0 8.902344-3.519531 17.246094-9.914063 23.488281-6.386718 6.238281-14.792968 9.601563-23.730468 9.347656-17.671876-.417969-32.050782-15.488281-32.050782-33.59375v-62.054687h10.183594v62.8125c0 7.972656 6.410156 22.636718 23.800781 22.636718zm0 0"/></svg>