<?xml version="1.0" encoding="iso-8859-1"?>
<!-- Generator: Adobe Illustrator 19.0.0, SVG Export Plug-In . SVG Version: 6.00 Build 0)  -->
<svg version="1.1" id="Layer_1" xmlns="http://www.w3.org/2000/svg" xmlns:xlink="http://www.w3.org/1999/xlink" x="0px" y="0px"
	 viewBox="0 0 512 512" style="enable-background:new 0 0 512 512;" xml:space="preserve">
<polygon style="fill:#BDF6EC;" points="328.598,68.32 429.031,68.32 429.031,504.932 84.451,504.932 84.451,135.272 84.451,100.425 
	84.451,68.32 179.464,68.32 "/>
<polygon style="fill:#6C489C;" points="286.954,29.795 286.954,8.393 223.539,8.393 223.539,29.795 180.679,29.795 180.679,100.424 
	329.814,100.424 329.814,29.795 "/>
<g>
	<rect x="138.623" y="155.889" style="fill:#FFFFFF;" width="42.732" height="42.732"/>
	<rect x="138.623" y="156.961" style="fill:#FFFFFF;" width="42.732" height="42.732"/>
	<rect x="138.623" y="242.57" style="fill:#FFFFFF;" width="42.732" height="42.732"/>
	<rect x="138.623" y="327.106" style="fill:#FFFFFF;" width="42.732" height="42.732"/>
	<rect x="138.623" y="412.725" style="fill:#FFFFFF;" width="42.732" height="42.732"/>
</g>
<polygon style="opacity:0.1;enable-background:new    ;" points="383.378,68.32 383.378,459.277 84.451,459.277 84.451,504.932 
	429.031,504.932 429.031,68.32 "/>
<path d="M428.29,59.927h-92.704V29.134c0-4.271-3.461-7.731-7.731-7.731h-38.011V7.731c0-4.271-3.461-7.731-7.731-7.731h-63.415
	c-4.27,0-7.731,3.46-7.731,7.731v13.672h-32.246c-4.27,0-7.731,3.46-7.731,7.731v30.793H83.71c-4.27,0-7.731,3.46-7.731,7.731
	v32.106c0,4.271,3.461,7.731,7.731,7.731c4.27,0,7.731-3.46,7.731-7.731V75.389h79.549v24.372c0,4.271,3.461,7.731,7.731,7.731
	h149.134c4.27,0,7.731-3.46,7.731-7.731V75.389h84.973v421.15H91.441V134.61c0-4.271-3.461-7.731-7.731-7.731
	c-4.27,0-7.731,3.46-7.731,7.731v369.659c0,4.271,3.461,7.731,7.731,7.731h344.58c4.27,0,7.731-3.46,7.731-7.731V67.658
	C436.021,63.387,432.56,59.927,428.29,59.927z M226.43,15.462h47.953v5.941H226.43L226.43,15.462L226.43,15.462z M320.126,92.03
	H186.452V36.865h32.246h63.415h38.011V92.03H320.126z"/>
<path d="M209.04,183.393h166.706c4.27,0,7.731-3.46,7.731-7.731s-3.461-7.731-7.731-7.731H209.04c-4.27,0-7.731,3.46-7.731,7.731
	S204.77,183.393,209.04,183.393z"/>
<path d="M209.04,268.22h166.706c4.27,0,7.731-3.46,7.731-7.731c0-4.271-3.461-7.731-7.731-7.731H209.04
	c-4.27,0-7.731,3.46-7.731,7.731C201.308,264.76,204.77,268.22,209.04,268.22z"/>
<path d="M209.04,353.046h166.706c4.27,0,7.731-3.46,7.731-7.731c0-4.271-3.461-7.731-7.731-7.731H209.04
	c-4.27,0-7.731,3.46-7.731,7.731C201.308,349.586,204.77,353.046,209.04,353.046z"/>
<path d="M209.04,437.873h166.706c4.27,0,7.731-3.46,7.731-7.731c0-4.271-3.461-7.731-7.731-7.731H209.04
	c-4.27,0-7.731,3.46-7.731,7.731C201.308,434.412,204.77,437.873,209.04,437.873z"/>
<path d="M134.23,206.762h42.732c4.27,0,7.731-3.46,7.731-7.731v-1.07v-41.662v-1.07c0-4.271-3.461-7.731-7.731-7.731H134.23
	c-4.27,0-7.731,3.46-7.731,7.731v1.07v41.662v1.07C126.499,203.302,129.96,206.762,134.23,206.762z M141.961,190.23v-26.2h27.27
	v26.2L141.961,190.23L141.961,190.23z"/>
<path d="M126.499,284.642c0,4.271,3.461,7.731,7.731,7.731h42.732c4.27,0,7.731-3.46,7.731-7.731V241.91
	c0-4.271-3.461-7.731-7.731-7.731H134.23c-4.27,0-7.731,3.46-7.731,7.731V284.642z M141.961,249.641h27.27v27.27h-27.27V249.641z"/>
<path d="M126.499,369.181c0,4.271,3.461,7.731,7.731,7.731h42.732c4.27,0,7.731-3.46,7.731-7.731V326.45
	c0-4.271-3.461-7.731-7.731-7.731H134.23c-4.27,0-7.731,3.46-7.731,7.731V369.181z M141.961,334.181h27.27v27.269h-27.27V334.181z"
	/>
<path d="M126.499,454.791c0,4.271,3.461,7.731,7.731,7.731h42.732c4.27,0,7.731-3.46,7.731-7.731v-42.732
	c0-4.271-3.461-7.731-7.731-7.731H134.23c-4.27,0-7.731,3.46-7.731,7.731V454.791z M141.961,419.79h27.27v27.27h-27.27V419.79z"/>
<g>
</g>
<g>
</g>
<g>
</g>
<g>
</g>
<g>
</g>
<g>
</g>
<g>
</g>
<g>
</g>
<g>
</g>
<g>
</g>
<g>
</g>
<g>
</g>
<g>
</g>
<g>
</g>
<g>
</g>
</svg>
