<svg height="442pt" viewBox="0 -61 442.12496 442" width="442pt" xmlns="http://www.w3.org/2000/svg"><path d="m381.03125 64.820312c0 31.566407-25.585938 57.15625-57.152344 57.15625s-57.15625-25.589843-57.15625-57.15625c0-31.566406 25.589844-57.15625 57.15625-57.15625s57.152344 25.589844 57.152344 57.15625zm0 0" fill="#ff8030"/><path d="m323.878906 91.492188h-19.050781v-15.242188h19.050781c2.101563 0 3.808594-1.703125 3.808594-3.808594 0-2.105468-1.707031-3.808594-3.808594-3.808594-10.523437 0-19.050781-8.53125-19.050781-19.054687 0-10.519531 8.527344-19.050781 19.050781-19.050781h19.050782v15.242187h-19.050782c-2.105468 0-3.8125 1.707031-3.8125 3.808594 0 2.105469 1.707032 3.8125 3.8125 3.8125 10.519532 0 19.050782 8.527344 19.050782 19.050781 0 10.523438-8.53125 19.050782-19.050782 19.050782zm0 0" fill="#ffdb6f"/><g fill="#d32144"><path d="m101.300781 108.96875 91.449219-91.449219 10.777344 10.777344-91.449219 91.449219zm0 0"/><path d="m122.828125 62.800781c-13.121094.003907-23.761719-10.628906-23.769531-23.753906-.003906-13.121094 10.632812-23.761719 23.753906-23.769531 13.125-.003906 23.765625 10.632812 23.769531 23.753906v.015625c-.011719 13.113281-10.640625 23.742187-23.753906 23.753906zm0-32.273437c-4.703125-.003906-8.523437 3.808594-8.527344 8.511718-.003906 4.707032 3.808594 8.523438 8.515625 8.527344 4.703125.003906 8.523438-3.804687 8.527344-8.511718 0-.003907 0-.003907 0-.007813-.003906-4.699219-3.8125-8.511719-8.515625-8.519531zm0 0"/><path d="m181.996094 121.976562c-13.121094 0-23.761719-10.640624-23.761719-23.761718 0-13.125 10.640625-23.761719 23.761719-23.761719 13.125 0 23.761718 10.636719 23.761718 23.761719-.007812 13.121094-10.640624 23.753906-23.761718 23.761718zm0-32.273437c-4.703125 0-8.519532 3.8125-8.519532 8.519531 0 4.703125 3.816407 8.519532 8.519532 8.519532 4.707031 0 8.519531-3.816407 8.519531-8.519532 0-.003906 0-.007812 0-.007812-.003906-4.703125-3.816406-8.511719-8.519531-8.511719zm0 0"/></g><path d="m76.207031 190.5625h53.34375l22.863281-18.472656h60.964844l68.585938-7.621094h45.722656v22.863281l-45.722656 7.617188-30.480469 11.433593 38.101563 34.292969 60.964843-22.863281 32.417969-41.683594c12.167969-15.644531 33.683594-20.523437 51.410156-11.660156l-53.34375 76.203125-83.828125 45.726563-45.722656-7.621094-114.3125-12.011719h-60.964844zm0 0" fill="#f9dfc8"/><path d="m0 190.5625h76.207031v121.929688h-76.207031zm0 0" fill="#1e76d2"/><path d="m53.34375 270.578125c0 6.3125-5.117188 11.429687-11.429688 11.429687s-11.429687-5.117187-11.429687-11.429687 5.117187-11.429687 11.429687-11.429687 11.429688 5.117187 11.429688 11.429687zm0 0" fill="#d3d3d3"/><path d="m101.300781 108.964844 91.445313-91.445313 10.777344 10.773438-91.449219 91.449219zm0 0"/><path d="m122.832031 62.808594c-13.101562 0-23.761719-10.660156-23.761719-23.761719s10.660157-23.761719 23.761719-23.761719c13.101563 0 23.757813 10.660156 23.757813 23.761719s-10.65625 23.761719-23.757813 23.761719zm0-32.28125c-4.699219 0-8.523437 3.820312-8.523437 8.519531s3.824218 8.519531 8.523437 8.519531c4.695313 0 8.515625-3.820312 8.515625-8.519531s-3.820312-8.519531-8.515625-8.519531zm0 0"/><path d="m181.996094 121.976562c-13.101563 0-23.761719-10.664062-23.761719-23.765624 0-13.097657 10.65625-23.757813 23.761719-23.757813 13.101562 0 23.761718 10.65625 23.761718 23.757813 0 13.105468-10.660156 23.765624-23.761718 23.765624zm0-32.28125c-4.695313 0-8.519532 3.820313-8.519532 8.515626 0 4.703124 3.824219 8.523437 8.519532 8.523437 4.699218 0 8.519531-3.820313 8.519531-8.523437 0-4.695313-3.820313-8.515626-8.519531-8.515626zm0 0"/><path d="m323.878906 129.597656c-35.714844 0-64.777344-29.058594-64.777344-64.777344s29.0625-64.773437 64.777344-64.773437c35.710938 0 64.773438 29.054687 64.773438 64.773437s-29.0625 64.777344-64.773438 64.777344zm0-114.3125c-27.3125 0-49.535156 22.222656-49.535156 49.535156s22.222656 49.535157 49.535156 49.535157 49.53125-22.222657 49.53125-49.535157-22.21875-49.535156-49.53125-49.535156zm0 0"/><path d="m323.878906 91.492188h-19.050781v-15.242188h19.050781c2.097656 0 3.808594-1.707031 3.808594-3.808594 0-2.101562-1.710938-3.808594-3.808594-3.808594-10.507812 0-19.050781-8.550781-19.050781-19.054687s8.542969-19.050781 19.050781-19.050781h19.050782v15.242187h-19.050782c-2.097656 0-3.8125 1.707031-3.8125 3.808594 0 2.105469 1.714844 3.8125 3.8125 3.8125 10.507813 0 19.050782 8.546875 19.050782 19.050781s-8.542969 19.050782-19.050782 19.050782zm0 0"/><path d="m297.207031 294.019531c-.417969 0-.835937-.035156-1.253906-.101562l-45.722656-7.621094-113.457031-11.910156h-60.566407c-4.210937 0-7.621093-3.40625-7.621093-7.621094v-76.203125c0-4.214844 3.410156-7.621094 7.621093-7.621094h50.648438l20.769531-16.78125c1.351562-1.09375 3.046875-1.691406 4.789062-1.691406h60.542969l68.164063-7.570312c.277344-.035157.558594-.050782.84375-.050782h45.722656c4.210938 0 7.621094 3.410156 7.621094 7.621094v22.863281c0 3.730469-2.695313 6.90625-6.371094 7.515625l-44.996094 7.503906-18.039062 6.765626 25.339844 22.800781 54.609374-20.480469 31.101563-39.984375c14.347656-18.445313 39.933594-24.242187 60.832031-13.800781 1.976563.996094 3.429688 2.800781 3.980469 4.941406.542969 2.152344.125 4.429688-1.144531 6.246094l-53.347656 76.207031c-.675782.964844-1.5625 1.753906-2.597657 2.320313l-83.824219 45.722656c-1.125.609375-2.382812.929687-3.644531.929687zm-213.378906-34.871093h53.34375c.261719 0 .53125.015624.796875.042968l114.308594 12.011719 43.589844 7.25 79.949218-43.613281 46.542969-66.492188c-12.332031-2.398437-25.378906 2.179688-33.378906 12.464844l-32.417969 41.683594c-.863281 1.109375-2.015625 1.957031-3.332031 2.457031l-60.964844 22.859375c-2.664063 1.007812-5.664063.433594-7.777344-1.472656l-38.105469-34.292969c-1.976562-1.777344-2.886718-4.464844-2.386718-7.078125.488281-2.617188 2.3125-4.785156 4.804687-5.722656l30.484375-11.429688c.460938-.171875.9375-.296875 1.429688-.378906l39.351562-6.558594v-8.789062h-37.679687l-68.167969 7.578125c-.277344.027343-.558594.042969-.839844.042969h-58.273437l-20.765625 16.78125c-1.355469 1.09375-3.046875 1.691406-4.789063 1.691406h-45.722656zm0 0"/><path d="m76.207031 320.113281h-68.585937c-4.210938 0-7.621094-3.410156-7.621094-7.621093v-121.929688c0-4.214844 3.410156-7.621094 7.621094-7.621094h68.585937c4.207031 0 7.621094 3.40625 7.621094 7.621094v121.929688c0 4.210937-3.414063 7.621093-7.621094 7.621093zm-60.964843-15.242187h53.34375v-106.6875h-53.34375zm0 0"/><path d="m53.34375 270.578125c0 6.3125-5.117188 11.429687-11.429688 11.429687s-11.429687-5.117187-11.429687-11.429687 5.117187-11.429687 11.429687-11.429687 11.429688 5.117187 11.429688 11.429687zm0 0"/></svg>