<?xml version="1.0" encoding="iso-8859-1"?>
<!-- Generator: Adobe Illustrator 19.0.0, SVG Export Plug-In . SVG Version: 6.00 Build 0)  -->
<svg version="1.1" id="Capa_1" xmlns="http://www.w3.org/2000/svg" xmlns:xlink="http://www.w3.org/1999/xlink" x="0px" y="0px"
	 viewBox="0 0 512 512" style="enable-background:new 0 0 512 512;" xml:space="preserve">
<g>
	<path style="fill:#EE3C32;" d="M145.807,388.175L98,502h88v-70C186,408.983,168.323,390.106,145.807,388.175z"/>
	<path style="fill:#EE3C32;" d="M10,432v70h88L50.193,388.175C27.677,390.106,10,408.983,10,432z"/>
</g>
<path style="fill:#FAA589;" d="M142,388H54c-1.284,0-2.551,0.067-3.807,0.175L98,502l47.807-113.825
	C144.551,388.067,143.284,388,142,388z"/>
<path style="fill:#FFD34E;" d="M282,426h-52c-24.301,0-44,19.699-44,44v32h140v-32C326,445.699,306.301,426,282,426z"/>
<path style="fill:#6FD1AB;" d="M458,388h-88c-24.301,0-44,19.699-44,44v70h176v-70C502,407.699,482.301,388,458,388z"/>
<path style="fill:#5AD2E6;" d="M10,216C10,80.138,120.138,10,256,10s246,70.138,246,206H10z"/>
<g>
	<ellipse style="fill:#FAA589;" cx="98" cy="352" rx="59" ry="67"/>
	<ellipse style="fill:#FAA589;" cx="256" cy="397" rx="31" ry="35"/>
	<ellipse style="fill:#FAA589;" cx="414" cy="352" rx="59" ry="67"/>
</g>
<path d="M477.649,381.719c3.443-9.15,5.351-19.19,5.351-29.719c0-42.458-30.953-77-69-77s-69,34.542-69,77
	c0,10.533,1.909,20.576,5.355,29.728c-18.963,7.433-32.726,25.279-34.208,46.475c-6.681-5.468-14.69-9.37-23.464-11.137
	C295.439,411.02,297,404.208,297,397c0-24.813-18.393-45-41-45s-41,20.187-41,45c0,7.208,1.561,14.02,4.317,20.066
	c-8.774,1.768-16.783,5.669-23.465,11.137c-0.854-12.214-5.795-23.745-14.157-32.805c-5.624-6.093-12.486-10.73-20.047-13.679
	C165.092,372.57,167,362.53,167,352c0-42.458-30.953-77-69-77s-69,34.542-69,77c0,10.528,1.908,20.567,5.35,29.716
	c-7.561,2.95-14.422,7.589-20.046,13.682C5.08,405.393,0,418.392,0,432v70c0,5.523,4.477,10,10,10h492c5.522,0,10-4.477,10-10v-70
	C512,409.155,497.734,389.593,477.649,381.719z M98,295c27.019,0,49,25.57,49,57s-21.981,57-49,57s-49-25.57-49-57
	S70.981,295,98,295z M20,492v-60c0-14.982,10.003-28.038,23.811-32.418C44.082,399.965,82.954,492,82.954,492H20z M76.583,425.184
	C83.33,427.649,90.525,429,98,429c7.476,0,14.67-1.351,21.417-3.816L98,476.176L76.583,425.184z M176,492h-62.954
	c0,0,38.873-92.036,39.142-92.418C165.997,403.962,176,417.017,176,432V492z M256,372c11.579,0,21,11.215,21,25s-9.421,25-21,25
	c-11.58,0-21-11.215-21-25S244.42,372,256,372z M316,492H196v-22c0-18.748,15.252-34,34-34h5.585c6.016,3.809,12.985,6,20.415,6
	s14.398-2.191,20.415-6H282c18.748,0,34,15.252,34,34V492z M414,295c27.019,0,49,25.57,49,57s-21.981,57-49,57s-49-25.57-49-57
	S386.981,295,414,295z M492,492H336v-60c0-15.196,10.026-28.082,23.808-32.423C372.454,417.476,392.037,429,414,429
	c21.964,0,41.548-11.525,54.194-29.426C481.976,403.914,492,416.804,492,432V492z"/>
<path d="M436.076,54.149c-22.92-17.771-50.337-31.45-81.487-40.657C324.297,4.54,291.127,0,256,0s-68.297,4.54-98.588,13.492
	c-31.151,9.207-58.567,22.885-81.487,40.657C26.254,92.662,0,148.629,0,216v20c0,5.523,4.477,10,10,10s10-4.477,10-10v-10h60v10
	c0,5.523,4.477,10,10,10s10-4.477,10-10v-10h64v10c0,5.523,4.477,10,10,10s10-4.477,10-10v-10h62v96c0,5.523,4.477,10,10,10
	c5.522,0,10-4.477,10-10v-96h62v10c0,5.523,4.478,10,10,10s10-4.477,10-10v-10h64v10c0,5.523,4.478,10,10,10s10-4.477,10-10v-10h60
	v10c0,5.523,4.478,10,10,10s10-4.477,10-10v-20C512,148.629,485.746,92.662,436.076,54.149z M96.79,122.84
	C86.751,148.387,81.186,176.32,80.181,206h-59.96c3.871-86.797,58.368-149.721,146.231-174.445
	c-9.562,6.918-18.637,14.856-26.953,23.615c-8.82,9.27-16.85,19.56-23.87,30.56C108.27,97.28,101.93,109.77,96.79,122.84z
	 M164.164,206h-63.958C102.729,137.339,130.512,93.734,154,68.93c21.537-22.75,49-39,75.871-45.625
	c-7.028,8.586-15.246,19.795-23.469,33.64C187.96,87.997,166.158,138.571,164.164,206z M184.171,206
	c1.967-62.48,22.015-109.31,38.983-138.091c12.646-21.451,25.415-36.219,32.844-43.963c18.23,19.041,68.691,80.673,71.846,182.055
	L184.171,206L184.171,206z M431.807,206c-0.554-16.072-2.426-31.715-5.617-46.61c-0.989-4.58-5.09-7.9-9.77-7.9
	c-0.71,0-1.42,0.07-2.11,0.22c-2.609,0.56-4.85,2.11-6.3,4.35c-1.45,2.24-1.94,4.92-1.38,7.53
	c2.903,13.536,4.621,27.765,5.164,42.41h-63.958c-1.995-67.429-23.797-118.003-42.239-149.055
	c-8.214-13.831-16.424-25.032-23.448-33.615c12.418,3.044,25.045,8.113,37.07,14.999c22.87,13.07,43.07,32.18,58.4,55.27
	c1.859,2.8,4.97,4.47,8.34,4.47c1.96,0,3.87-0.58,5.52-1.68c2.221-1.47,3.74-3.73,4.271-6.35c0.53-2.62,0-5.28-1.47-7.51
	c-8.761-13.17-18.94-25.21-30.271-35.78c-5.884-5.489-12.07-10.56-18.492-15.203C433.398,56.265,487.908,119.193,491.778,206
	H431.807z"/>
<path d="M404.63,113.34c-1.3,0-2.58,0.25-3.8,0.75c-2.471,1.02-4.4,2.94-5.42,5.4c-1.03,2.47-1.04,5.19-0.021,7.66
	c1.55,3.76,5.18,6.19,9.25,6.19c1.3,0,2.58-0.25,3.8-0.75c2.471-1.02,4.4-2.94,5.431-5.4c1.029-2.47,1.029-5.19,0.01-7.66
	C412.34,115.77,408.7,113.34,404.63,113.34z"/>
<g>
</g>
<g>
</g>
<g>
</g>
<g>
</g>
<g>
</g>
<g>
</g>
<g>
</g>
<g>
</g>
<g>
</g>
<g>
</g>
<g>
</g>
<g>
</g>
<g>
</g>
<g>
</g>
<g>
</g>
</svg>
