<svg xmlns="http://www.w3.org/2000/svg" xmlns:xlink="http://www.w3.org/1999/xlink" xmlns:sketch="http://www.bohemiancoding.com/sketch/ns" viewBox="0 0 179 193.75" version="1.1" x="0px" y="0px"><title>couple+child</title><desc>Created with Sketch.</desc><g stroke="none" stroke-width="1" fill="none" fill-rule="evenodd" sketch:type="MSPage"><g sketch:type="MSArtboardGroup" transform="translate(-1415.000000, -794.000000)" fill="#000000"><path d="M1571.81458,830.078154 C1575.73829,829.617293 1579.76156,832.330487 1580.80251,836.144546 L1593.70124,883.40535 L1593.07526,883.40535 C1589.81538,883.40535 1586.30949,880.903434 1585.24458,877.816984 L1579.64759,861.595071 L1588.17272,904.999999 C1588.17272,904.999999 1581.49383,905.626926 1581.48945,905.662476 L1584.53482,946.340979 C1584.61757,947.446261 1583.78704,948.342269 1582.68589,948.342269 L1579.6639,948.342269 L1569.94348,906.714822 L1567,906.71482 L1562.55594,946.362496 C1562.43338,947.455894 1561.44044,948.342269 1560.34256,948.342269 L1557.06639,948.342269 L1555.59126,842.019971 C1555.51448,836.486094 1559.90758,831.476696 1565.4043,830.831077 L1571.81458,830.078154 Z M1565.03591,802.114163 C1569.81446,802.114163 1573.29313,805.963156 1572.8057,810.711528 L1572.24573,816.166505 C1571.86392,819.885896 1568.51741,822.901057 1564.77446,822.901057 L1563.93094,822.901057 C1560.18648,822.901057 1556.84185,819.889572 1556.45967,816.166505 L1555.8997,810.711528 C1555.41228,805.963334 1558.88581,802.114163 1563.66949,802.114163 L1565.03591,802.114163 L1565.03591,802.114163 Z M1577.25928,817.895663 C1580.37748,821.139458 1587.31795,822.616434 1587.40107,821.832083 C1587.48419,821.047731 1584.16814,819.945766 1582.66375,815.024546 C1581.15936,810.103325 1578.27958,810.802431 1578.27958,810.802431 C1576.75846,810.596728 1575.28065,811.65562 1575.23378,813.189613 C1575.23378,813.189613 1574.14108,814.651868 1577.25928,817.895663 Z M1452.03829,813.036002 C1451.64923,816.882112 1448.23911,820 1444.42501,820 L1443.56545,820 C1439.74981,820 1436.34162,816.885914 1435.95217,813.036002 L1435.03366,804.367525 C1434.72747,801.733331 1436.54436,799.131626 1439.09046,798.544963 C1439.09046,798.544963 1441.65297,797.986986 1442.4654,797.697098 C1444.25255,797.059413 1447.02449,794.037453 1447.02449,794.037453 C1447.30465,793.927195 1447.61925,794.068758 1447.73104,794.352122 L1447.86981,794.703862 C1447.98246,794.989407 1448.29879,795.130876 1448.57827,795.024713 L1448.92519,794.892934 C1449.20682,794.785954 1449.60735,794.871731 1449.8246,795.082697 L1450.24663,795.492516 C1451.9443,797.070347 1453.26093,801.738476 1452.95587,804.367525 L1452.03829,813.036002 Z M1447.15655,828.463098 C1453.14361,829.15062 1457.98447,834.597972 1457.96894,840.621531 L1457.88667,872.518072 L1457.88667,948 L1453.62092,948 C1452.51655,948 1451.542,947.113675 1451.44248,946.000993 L1445.85788,883.566979 L1443.07125,883.566979 L1433.30521,947.496745 L1429.03946,947.496745 C1427.93509,947.496745 1427.06843,946.609132 1427.10452,945.488363 C1427.10452,945.488363 1429.3692,875.245928 1429.33341,874.666431 L1429.13261,858.224685 L1422.67269,882.109469 C1422.03918,884.451817 1419.56771,886.650698 1417.17293,887.017679 L1415,887.350665 L1424.12055,835.441695 C1425.03597,830.231669 1430.03987,826.497512 1435.29231,827.100673 L1447.15655,828.463098 Z M1553.5,859.5 L1535.33719,873.497061 L1537.17194,874.919619 C1539.00998,876.344724 1542.06879,876.45414 1544.00316,875.164563 L1552.5,869.5 L1553.5,859.5 Z M1460.5,859.5 L1478.66281,873.497061 L1476.82806,874.919619 C1474.99002,876.344724 1471.93121,876.45414 1469.99684,875.164563 L1461.5,869.5 L1460.5,859.5 Z M1499.85581,869.910026 C1500.20162,873.273426 1503.23258,876 1506.6226,876 L1507.38658,876 C1510.77797,876 1513.80722,873.27675 1514.15337,869.910026 L1514.96975,865.171601 C1515.24189,862.868014 1513.29588,858 1507.09444,858 C1500.893,858 1498.76912,862.872513 1499.04026,865.171601 L1499.85581,869.910026 Z M1534,873.5 L1533.87124,875.045149 C1533.66621,877.505495 1531.77909,880.525902 1529.66731,881.784816 L1520.17285,887.444837 C1517.80566,888.856015 1515.92526,892.23813 1515.9728,894.995246 L1516.88667,948 L1514.62908,948 C1513.5202,948 1512.48955,947.109738 1512.32911,946.025477 L1508.85788,922.566979 L1506.07125,922.566979 L1501.67919,945.540548 C1501.47265,946.620926 1500.40063,947.496745 1499.29742,947.496745 L1497.03982,947.496745 L1498.95009,895.219493 C1499.05089,892.460937 1497.175,889.127356 1494.76718,887.777668 L1483.84875,881.657399 C1481.72315,880.4659 1479.83628,877.535376 1479.63399,875.10789 L1479.5,873.5 L1499.95968,880.807029 C1504.12408,882.294316 1510.85624,882.233493 1514.98758,880.674499 L1534,873.5 Z" sketch:type="MSShapeGroup"/></g></g><text x="0" y="170" fill="#000000" font-size="5px" font-weight="bold" font-family="'Helvetica Neue', Helvetica, Arial-Unicode, Arial, Sans-serif">Created by Ludovic Riffault</text><text x="0" y="175" fill="#000000" font-size="5px" font-weight="bold" font-family="'Helvetica Neue', Helvetica, Arial-Unicode, Arial, Sans-serif">from the Noun Project</text></svg>