<svg height="512pt" viewBox="-58 0 512 512" width="512pt" xmlns="http://www.w3.org/2000/svg"><path d="m248.484375 57.644531v42c-12.296875 12.296875-19.191406 19.191407-31.488281 31.488281h-37.3125c-12.296875-12.296874-19.191406-19.191406-31.488282-31.488281v-42c0-27.695312 22.449219-50.144531 50.144532-50.144531 27.695312 0 50.144531 22.449219 50.144531 50.144531zm0 0" fill="#ffd9a9"/><path d="m138.101562 131.132812h-53.585937v-63.753906h-47.550781v94.332032c6.023437 6.023437 9.398437 9.398437 15.421875 15.421874h85.714843zm0 0" fill="#ffd9a9"/><path d="m258.65625 177.132812h85.714844c6.019531-6.023437 9.398437-9.398437 15.417968-15.421874v-94.332032h-47.550781v63.753906h-53.582031zm0 0" fill="#ffd9a9"/><path d="m138.101562 131.132812h120.554688v151.851563h-120.554688zm0 0" fill="#44ffe8"/><path d="m138.101562 282.984375v221.515625h44.183594l16.09375-16.089844 16.089844 16.089844h44.1875v-221.515625zm0 0" fill="#828187"/><g fill="#c6c5ca"><path d="m7.5 29.347656h29.46875v54.21875h-29.46875zm0 0"/><path d="m84.476562 29.347656h29.46875v54.21875h-29.46875zm0 0"/><path d="m36.96875 45.53125h47.507812v21.847656h-47.507812zm0 0"/><path d="m282.8125 29.347656h29.464844v54.21875h-29.464844zm0 0"/><path d="m359.789062 29.347656h29.46875v54.21875h-29.46875zm0 0"/><path d="m312.277344 45.53125h47.511718v21.847656h-47.511718zm0 0"/></g><path d="m198.304688 159.667969c15.757812 0 28.53125-12.777344 28.53125-28.535157h-57.066407c0 15.757813 12.777344 28.535157 28.535157 28.535157zm0 0" fill="#ffd9a9"/><path d="m178.195312 99.644531v-42c0-22.46875 14.78125-41.484375 35.144532-47.859375-4.734375-1.484375-9.773438-2.285156-15-2.285156-27.695313 0-50.144532 22.449219-50.144532 50.144531v42c12.296876 12.296875 19.191407 19.191407 31.492188 31.488281h30c-12.300781-12.296874-19.195312-19.191406-31.492188-31.488281zm0 0" fill="#ffbb85"/><path d="m66.96875 67.378906h-30v94.332032c6.019531 6.023437 9.394531 9.398437 15.417969 15.421874h30c-6.023438-6.023437-9.398438-9.398437-15.417969-15.421874zm0 0" fill="#ffbb85"/><path d="m312.238281 67.378906h30v63.753906h-30zm0 0" fill="#ffbb85"/><path d="m258.65625 131.132812h30v46h-30zm0 0" fill="#ffbb85"/><path d="m138.101562 131.132812h30v151.851563h-30zm0 0" fill="#57a4ff"/><path d="m138.101562 282.984375h30v221.515625h-30zm0 0" fill="#5f5e63"/><path d="m7.5 29.347656h15v54.21875h-15zm0 0" fill="#898890"/><path d="m84.476562 29.347656h15v54.21875h-15zm0 0" fill="#898890"/><path d="m36.96875 45.53125h15v21.847656h-15zm0 0" fill="#898890"/><path d="m282.8125 29.347656h15v54.21875h-15zm0 0" fill="#898890"/><path d="m359.789062 29.347656h15v54.21875h-15zm0 0" fill="#898890"/><path d="m312.277344 45.53125h15v21.847656h-15zm0 0" fill="#898890"/><path d="m199.769531 131.132812h-30c0 15.757813 12.777344 28.53125 28.535157 28.53125 5.503906 0 10.640624-1.558593 15-4.261718-8.121094-5.027344-13.535157-14.015625-13.535157-24.269532zm0 0" fill="#ffbb85"/><path d="m352.289062 158.605469-11.023437 11.023437h-75.109375v-30.996094h53.582031v-31.253906h-15v16.253906h-69.636719l20.882813-20.882812v-45.105469c0-31.785156-25.855469-57.644531-57.644531-57.644531-31.785156 0-57.644532 25.859375-57.644532 57.644531v45.105469l20.882813 20.882812h-69.5625v-16.253906h-15v31.253906h53.585937v31h-75.109374l-11.023438-11.027343v-51.226563h-15v57.4375l19.8125 19.816406h81.320312v105.851563h135.554688v-105.851563h81.320312l19.8125-19.816406v-57.4375h-15zm-134.332031-19.972657c-3.027343 7.90625-10.695312 13.535157-19.652343 13.535157-8.957032 0-16.625-5.628907-19.652344-13.535157zm-62.261719-80.988281c0-23.511719 19.132813-42.644531 42.648438-42.644531 23.511719 0 42.644531 19.132812 42.644531 42.644531v38.894531l-27.097656 27.09375h-31.097656l-27.097657-27.09375zm95.460938 217.839844h-105.554688v-136.851563h17.453126c3.460937 16.28125 17.953124 28.53125 35.25 28.53125 17.296874 0 31.785156-12.25 35.246093-28.53125h17.605469zm0 0"/><path d="m251.15625 497h-33.582031l-11.769531-11.769531v-149.933594h-15v150.082031l-11.625 11.621094h-33.578126v-194.015625h-15v209.015625h54.792969l12.984375-12.984375 12.984375 12.984375h54.792969v-209.015625h-15zm0 0"/><path d="m44.46875 74.878906h32.507812v16.1875h44.46875v-69.21875h-44.46875v16.1875h-32.507812v-16.1875h-44.46875v69.21875h44.46875zm47.507812-38.03125h14.46875v39.21875h-14.46875zm-15 16.183594v6.847656h-32.507812v-6.847656zm-47.507812 23.035156h-14.46875v-39.21875h14.46875zm0 0"/><path d="m352.289062 21.847656v16.1875h-32.511718v-16.1875h-44.464844v69.21875h44.464844v-16.1875h32.511718v16.1875h44.46875v-69.21875zm-47.511718 54.21875h-14.464844v-39.21875h14.464844zm15-16.1875v-6.847656h32.511718v6.847656zm61.980468 16.1875h-14.46875v-39.21875h14.46875zm0 0"/><path d="m230.984375 89.289062h-15v-21.148437h15zm0-31.148437h-15v-.496094c0-3.425781-.984375-6.746093-2.851563-9.605469l12.5625-8.199218c3.460938 5.304687 5.289063 11.460937 5.289063 17.804687zm-22.746094-15.09375c-2.925781-1.992187-6.351562-3.046875-9.898437-3.046875v-15c6.570312 0 12.914062 1.953125 18.339844 5.648438zm0 0" fill="#fff"/><path d="m241.15625 257.984375h-15v-28.316406h15zm0-38.316406h-15v-15h15zm0-25h-15v-15h15zm0 0" fill="#fff"/><path d="m241.15625 459h-15v-68h15zm0-78h-15v-15h15zm0-25h-15v-15h15zm0 0" fill="#fff"/></svg>