<svg height="512pt" viewBox="0 0 512 512" width="512pt" xmlns="http://www.w3.org/2000/svg"><path d="m232 10.003906h109.996094v172h-109.996094zm0 0" fill="#ff5a5a" fill-rule="evenodd"/><path d="m341.996094 102.003906v80h-150v39.996094h184v40h-184v119.996094l124 .003906v120h100.003906v-399.996094zm0 0" fill="#ffdaae"/><path d="m208 222h167.996094v40h-167.996094zm0 0" fill="#96c8eb" fill-rule="evenodd"/><path d="m48 182.003906h47.996094v319.996094h-47.996094zm0 0" fill="#bf9a94" fill-rule="evenodd"/><path d="m416 182.003906v319.996094h85.996094v-319.996094zm0 0" fill="#bf9a94" fill-rule="evenodd"/><path d="m226.996094 382h29.003906v120h-29.003906zm0 0" fill="#96c8eb" fill-rule="evenodd"/><path d="m256 382h59.996094v120h-59.996094zm0 0" fill="#96c8eb" fill-rule="evenodd"/><g fill="#000001"><path d="m501.996094 172.003906h-75.996094v-70c0-5.523437-4.480469-10-10-10h-64.003906v-82.003906c0-5.523438-4.476563-10-10-10h-172c-5.523438 0-10 4.476562-10 10v82.003906h-64c-5.519532 0-10 4.476563-10 10v70h-75.996094c-5.523438 0-10 4.476563-10 10v319.996094c0 5.523438 4.476562 10 10 10h491.996094c5.523437 0 10-4.476562 10-10v-319.996094c0-5.523437-4.476563-10-10-10zm-170-152.003906v152h-152v-69.996094c0-.015625 0-.027344 0-.039062v-81.964844zm-311.996094 172.003906h65.996094v19.996094h-7.03125c-5.519532 0-10 4.480469-10 10 0 5.523438 4.480468 10 10 10h7.03125v20h-36c-5.519532 0-10 4.476562-10 10 0 5.519531 4.480468 10 10 10h36v19.996094h-36c-5.519532 0-10 4.476562-10 10 0 5.523437 4.480468 10 10 10h36v20h-36c-5.519532 0-10 4.476562-10 10 0 5.523437 4.480468 10 10 10h36v20h-36c-5.519532 0-10 4.476562-10 10 0 5.523437 4.480468 10 10 10h36v20h-36c-5.519532 0-10 4.476562-10 10 0 5.523437 4.480468 10 10 10h36v19.996094h-36c-5.519532 0-10 4.476562-10 10 0 5.523437 4.480468 10 10 10h36v20.007812h-65.996094zm85.996094-10v-70h54v69.996094c0 2.761719 1.121094 5.261719 2.929687 7.070312 1.8125 1.8125 4.3125 2.933594 7.070313 2.933594h172c5.523437 0 10-4.480468 10-10v-70h54.003906v379.996094h-80.003906v-110c0-5.523438-4.476563-10-10-10h-120c-5.519532 0-10 4.476562-10 10v110h-80zm100 209.996094h40.003906v100h-40.003906zm60.003906 100v-100h39.996094v100zm226 0h-66v-20.007812h7.03125c5.523438 0 10-4.476563 10-10 0-5.523438-4.476562-10-10-10h-7.03125v-19.996094h36c5.519531 0 10-4.476563 10-10 0-5.523438-4.480469-10-10-10h-36v-20h36c5.519531 0 10-4.476563 10-10 0-5.523438-4.480469-10-10-10h-36v-20h36c5.519531 0 10-4.476563 10-10 0-5.523438-4.480469-10-10-10h-36v-20h36c5.519531 0 10-4.476563 10-10 0-5.523438-4.480469-10-10-10h-36v-19.996094h36c5.519531 0 10-4.480469 10-10 0-5.523438-4.480469-10-10-10h-36v-20h36c5.519531 0 10-4.476562 10-10 0-5.519531-4.480469-10-10-10h-36v-19.996094h66zm0 0"/><path d="m225.996094 106h20.003906v20c0 5.523438 4.476562 10 10 10 5.519531 0 10-4.476562 10-10v-20h20c5.523438 0 10-4.476562 10-10s-4.476562-10-10-10h-20v-20c0-5.519531-4.480469-10-10-10-5.523438 0-10 4.480469-10 10v20h-20.003906c-5.519532 0-10 4.476562-10 10s4.480468 10 10 10zm0 0"/><path d="m49.996094 232h.238281c5.519531 0 10-4.476562 10-10 0-5.519531-4.480469-10-10-10h-.238281c-5.519532 0-10 4.480469-10 10 0 5.523438 4.480468 10 10 10zm0 0"/><path d="m462 451.992188h-.234375c-5.523437 0-10 4.476562-10 10 0 5.523437 4.476563 10 10 10h.234375c5.519531 0 10-4.476563 10-10 0-5.519532-4.480469-10-10-10zm0 0"/><path d="m375.996094 272c5.523437 0 10-4.480469 10-10v-40c0-5.519531-4.476563-10-10-10h-240c-5.519532 0-10 4.480469-10 10v40c0 5.519531 4.480468 10 10 10zm-230-40h220v20h-220zm0 0"/><path d="m287.265625 292h-.238281c-5.519532 0-10 4.480469-10 10 0 5.523438 4.480468 10 10 10h.238281c5.523437 0 10-4.476562 10-10s-4.476563-10-10-10zm0 0"/><path d="m375.996094 292h-60c-5.523438 0-10 4.480469-10 10 0 5.523438 4.476562 10 10 10h60c5.523437 0 10-4.476562 10-10s-4.476563-10-10-10zm0 0"/></g></svg>