<?xml version="1.0"?>
<svg xmlns="http://www.w3.org/2000/svg" height="512px" viewBox="0 0 512 512.00012" width="512px"><path d="m191.945312 190c0 5.523438-4.476562 10-10 10-5.523437 0-10-4.476562-10-10s4.476563-10 10-10c5.523438 0 10 4.476562 10 10zm0 0" fill="#FFFFFF"/><path d="m323.945312 0c-105.105468 0-190.609374 85.234375-190.609374 190 0 39.925781 12.796874 79.136719 36.183593 111.390625l-29.613281 29.605469-7.070312-7.070313c-3.882813-3.882812-10.167969-3.90625-14.085938-.058593l-102.976562 101.269531c-18.007813 18.011719-20.984376 46.320312-6.921876 65.855469 18.296876 25.398437 54.425782 28.042968 76.058594 6.425781l104.4375-102.730469c3.960938-3.890625 3.984375-10.273438.058594-14.199219l-7.070312-7.066406 29.597656-29.597656c32.257812 23.382812 71.46875 36.175781 111.402344 36.175781 105.253906 0 188.609374-85.636719 188.609374-190 0-104.835938-83.160156-190-188-190zm-253.121093 483.214844c-12.707031 12.699218-34.398438 11.84375-45.746094-3.90625-8.394531-11.667969-6.316406-28.875 4.777344-39.96875l95.847656-94.257813 42.429687 42.417969zm83.226562-138.078125 28.117188-28.109375c4.457031 4.949218 9.175781 9.675781 14.132812 14.140625l-28.109375 28.109375zm169.285157 14.863281c-93.257813 0-170-75.675781-170-170 0-93.738281 76.535156-170 170.609374-170 92.636719 0 168 76.261719 168 170s-75.640624 170-168.609374 170zm0 0" fill="#FFFFFF"/><path d="m291.496094 53.277344c-1.636719-5.273438-7.238282-8.222656-12.515625-6.589844-47.605469 14.761719-85.421875 52.785156-99.609375 101.113281-1.558594 5.300781 1.476562 10.855469 6.777344 12.414063 5.296874 1.554687 10.855468-1.480469 12.410156-6.777344 12.3125-41.9375 44.59375-74.703125 86.347656-87.648438 5.273438-1.632812 8.226562-7.234374 6.589844-12.511718zm0 0" fill="#FFFFFF"/><path d="m371.945312 130c0-27.570312-22.429687-50-50-50-27.570312 0-50 22.429688-50 50s22.429688 50 50 50c27.570313 0 50-22.429688 50-50zm-50 30c-16.542968 0-30-13.457031-30-30s13.457032-30 30-30c16.539063 0 30 13.457031 30 30s-13.460937 30-30 30zm0 0" fill="#FFFFFF"/><path d="m321.945312 180c-38.597656 0-70 31.402344-70 70v20c0 5.519531 4.476563 10 10 10h120c5.523438 0 10-4.480469 10-10v-20c0-38.625-31.25-70-70-70zm50 80h-100v-10c0-27.570312 22.429688-50 50-50 27.585938 0 50 22.316406 50 50zm0 0" fill="#FFFFFF"/></svg>
