<svg height="512pt" viewBox="0 -94 512.001 512" width="512pt" xmlns="http://www.w3.org/2000/svg"><path d="m471.628906 276.828125h-431.257812v-253.25c0-8.878906 7.199218-16.078125 16.078125-16.078125h399.101562c8.878907 0 16.078125 7.199219 16.078125 16.078125zm0 0" fill="#676a75"/><path d="m455.550781 7.5h-34.222656v269.328125h50.300781v-253.25c0-8.878906-7.199218-16.078125-16.078125-16.078125zm0 0" fill="#454851"/><path d="m442.941406 276.828125v-235.148437c0-3.03125-2.460937-5.492188-5.496094-5.492188h-362.890624c-3.035157 0-5.496094 2.460938-5.496094 5.492188v235.148437zm0 0" fill="#75cff2"/><path d="m437.445312 36.1875h-44.804687v240.640625h50.300781v-235.148437c0-3.03125-2.460937-5.492188-5.496094-5.492188zm0 0" fill="#53b4e4"/><path d="m464.234375 316.558594h-416.46875c-22.238281 0-40.265625-18.027344-40.265625-40.265625 0-3.582031 2.902344-6.480469 6.480469-6.480469h484.039062c3.578125 0 6.480469 2.902344 6.480469 6.480469 0 22.238281-18.027344 40.265625-40.265625 40.265625zm0 0" fill="#505264"/><path d="m498.019531 269.808594h-43.984375v12.964844c0 18.660156-15.125 33.785156-33.785156 33.785156h43.984375c22.238281 0 40.265625-18.027344 40.265625-40.265625 0-3.582031-2.902344-6.484375-6.480469-6.484375zm0 0" fill="#3c3f4e"/><path d="m176.054688 269.808594c0 12.910156 10.464843 23.375 23.371093 23.375h113.148438c12.90625 0 23.371093-10.464844 23.371093-23.375zm0 0" fill="#676a75"/><path d="m304.40625 221.46875h-96.8125c-2.640625 0-4.78125-2.140625-4.78125-4.785156v-69.238282c0-2.640624 2.140625-4.78125 4.78125-4.78125h96.8125c2.640625 0 4.78125 2.140626 4.78125 4.78125v69.238282c0 2.640625-2.140625 4.785156-4.78125 4.785156zm0 0" fill="#f79f48"/><path d="m304.40625 142.664062h-45.515625v78.804688h45.515625c2.640625 0 4.78125-2.140625 4.78125-4.785156v-69.238282c0-2.640624-2.140625-4.78125-4.78125-4.78125zm0 0" fill="#ef8229"/><path d="m231.027344 200.136719c4.144531 0 7.5-3.359375 7.5-7.5v-16.484375c0-4.140625-3.355469-7.5-7.5-7.5-4.144532 0-7.5 3.359375-7.5 7.5v16.484375c0 4.140625 3.359375 7.5 7.5 7.5zm0 0"/><path d="m256 200.136719c4.144531 0 7.5-3.359375 7.5-7.5v-16.484375c0-4.140625-3.355469-7.5-7.5-7.5s-7.5 3.359375-7.5 7.5v16.484375c0 4.140625 3.355469 7.5 7.5 7.5zm0 0"/><path d="m280.972656 200.136719c4.144532 0 7.5-3.359375 7.5-7.5v-16.484375c0-4.140625-3.355468-7.5-7.5-7.5-4.144531 0-7.5 3.359375-7.5 7.5v16.484375c0 4.140625 3.355469 7.5 7.5 7.5zm0 0"/><path d="m304.40625 135.164062h-2.390625v-15.132812c0-25.371094-20.644531-46.015625-46.015625-46.015625s-46.015625 20.644531-46.015625 46.015625v15.132812h-2.394531c-6.769532 0-12.28125 5.507813-12.28125 12.28125v69.238282c0 6.773437 5.511718 12.28125 12.28125 12.28125h96.816406c6.769531 0 12.28125-5.507813 12.28125-12.28125v-69.238282c0-6.773437-5.507812-12.28125-12.28125-12.28125zm-79.421875-15.132812c0-17.101562 13.914063-31.015625 31.015625-31.015625s31.015625 13.914063 31.015625 31.015625v15.132812h-62.03125zm76.703125 93.9375h-91.378906v-63.804688h91.378906zm0 0"/><path d="m498.019531 262.308594h-18.890625v-238.734375c0-13-10.578125-23.574219-23.578125-23.574219h-399.101562c-13 0-23.578125 10.578125-23.578125 23.574219v238.734375h-18.890625c-7.707031 0-13.980469 6.273437-13.980469 13.984375 0 26.335937 21.429688 47.765625 47.765625 47.765625h416.46875c26.339844 0 47.765625-21.429688 47.765625-47.765625 0-7.710938-6.273438-13.984375-13.980469-13.984375zm-450.148437-238.734375c0-4.726563 3.847656-8.574219 8.578125-8.574219h399.101562c4.730469 0 8.578125 3.847656 8.578125 8.574219v238.734375h-13.691406v-97.566406c0-4.144532-3.355469-7.5-7.5-7.5-4.140625 0-7.5 3.355468-7.5 7.5v97.566406h-358.875v-97.566406c0-4.144532-3.359375-7.5-7.5-7.5-4.144531 0-7.5 3.355468-7.5 7.5v97.566406h-13.691406zm278.691406 253.734375c-2.683594 4.984375-7.949219 8.375-13.988281 8.375h-113.148438c-6.039062 0-11.304687-3.390625-13.984375-8.375zm137.671875 31.75h-416.46875c-17.726563 0-32.210937-14.148438-32.75-31.75h154.460937c3.359376 13.414062 15.511719 23.375 29.949219 23.375h113.148438c14.4375 0 26.589843-9.960938 29.949219-23.375h154.460937c-.539063 17.601562-15.023437 31.75-32.75 31.75zm0 0"/><path d="m69.0625 137.21875c4.140625 0 7.5-3.359375 7.5-7.5v-86.03125h358.878906v86.113281c0 4.140625 3.355469 7.5 7.5 7.5 4.140625 0 7.5-3.359375 7.5-7.5v-88.121093c0-7.164063-5.832031-12.992188-12.996094-12.992188h-362.890624c-7.164063 0-12.992188 5.828125-12.992188 12.992188v88.035156c0 4.144531 3.355469 7.503906 7.5 7.503906zm0 0"/></svg>