<svg height="423pt" viewBox="0 -21 423.2515 423" width="423pt" xmlns="http://www.w3.org/2000/svg"><path d="m90.332031 206.226562c-39.027343 0-70.832031-27.039062-71.292969-60.417968l-18.890624-90.128906c-.636719-3.007813.824218-6.074219 3.566406-7.472657l23.273437-11.941406c3.347657-1.742187 7.464844-.398437 9.1875 2.960937 1.71875 3.351563.398438 7.464844-2.960937 9.1875l-18.632813 9.558594 17.957031 85.699219c.101563.460937.148438.929687.148438 1.402344 0 26.191406 25.859375 47.5 57.644531 47.5 31.78125 0 57.640625-21.308594 57.640625-47.5 0-.449219.046875-.902344.132813-1.339844l17.15625-85.773437-18.339844-9.566407c-3.34375-1.746093-4.636719-5.867187-2.894531-9.214843 1.746094-3.339844 5.847656-4.640626 9.210937-2.890626l22.882813 11.9375c2.683594 1.40625 4.125 4.414063 3.53125 7.394532l-18.03125 90.152344c-.4375 33.398437-32.25 60.453124-71.289063 60.453124zm0 0" fill="#602f75"/><g fill="#ffe600"><path d="m74.320312 28.859375c0 12.097656-9.804687 21.902344-21.902343 21.902344-12.097657 0-21.90625-9.804688-21.90625-21.902344 0-12.101563 9.808593-21.90625 21.90625-21.90625 12.097656 0 21.902343 9.804687 21.902343 21.90625zm0 0"/><path d="m52.417969 57.59375c-15.847657 0-28.734375-12.886719-28.734375-28.734375s12.886718-28.734375 28.734375-28.734375c15.847656 0 28.734375 12.886719 28.734375 28.734375s-12.886719 28.734375-28.734375 28.734375zm0-43.816406c-8.3125 0-15.078125 6.769531-15.078125 15.082031s6.765625 15.078125 15.078125 15.078125 15.082031-6.765625 15.082031-15.078125-6.769531-15.082031-15.082031-15.082031zm0 0"/><path d="m154.25 28.859375c0 12.097656-9.808594 21.902344-21.90625 21.902344s-21.902344-9.804688-21.902344-21.902344c0-12.101563 9.804688-21.90625 21.902344-21.90625s21.90625 9.804687 21.90625 21.90625zm0 0"/><path d="m132.34375 57.59375c-15.84375 0-28.730469-12.886719-28.730469-28.734375s12.886719-28.734375 28.730469-28.734375c15.847656 0 28.734375 12.886719 28.734375 28.734375s-12.886719 28.734375-28.734375 28.734375zm0-43.816406c-8.3125 0-15.078125 6.769531-15.078125 15.082031s6.765625 15.078125 15.078125 15.078125c8.316406 0 15.082031-6.765625 15.082031-15.078125s-6.765625-15.082031-15.082031-15.082031zm0 0"/></g><path d="m170.9375 123.664062c0 44.652344-36.199219 80.847657-80.847656 80.847657-44.652344 0-80.851563-36.199219-80.851563-80.847657h20.617188c0 33.261719 26.96875 60.230469 60.234375 60.230469 33.261718 0 60.230468-26.96875 60.230468-60.230469zm0 0" fill="#ea3457"/><path d="m90.085938 211.339844c-48.339844 0-87.675782-39.335938-87.675782-87.671875 0-3.773438 3.054688-6.828125 6.828125-6.828125h20.621094c3.773437 0 6.824219 3.054687 6.824219 6.828125 0 29.445312 23.953125 53.398437 53.402344 53.398437 29.445312 0 53.40625-23.953125 53.40625-53.398437 0-3.773438 3.050781-6.828125 6.824218-6.828125h20.621094c3.773438 0 6.828125 3.054687 6.828125 6.828125 0 48.335937-39.335937 87.671875-87.679687 87.671875zm-73.707032-80.847656c3.453125 37.628906 35.191406 67.195312 73.707032 67.195312 38.515624 0 70.261718-29.566406 73.714843-67.195312h-7.003906c-3.425781 33.78125-32.039063 60.226562-66.710937 60.226562-34.667969 0-63.28125-26.445312-66.707032-60.226562zm0 0" fill="#602f75"/><path d="m161.882812 381.679688c-26.804687 0-61.984374-7.21875-76.433593-41.882813-3.542969-8.511719-3.539063-17.203125-3.53125-25.605469v-109.679687c0-3.773438 3.054687-6.828125 6.828125-6.828125 3.773437 0 6.824218 3.054687 6.824218 6.828125v109.691406c-.003906 7.378906-.011718 14.355469 2.480469 20.339844 15.179688 36.429687 60.042969 35.601562 85.425781 31.875 3.820313-.601563 7.203126 2.03125 7.75 5.757812.542969 3.734375-2.035156 7.203125-5.761718 7.75-6.058594.890625-14.320313 1.753907-23.582032 1.753907zm0 0" fill="#602f75"/><path d="m268.726562 381.414062c-9.96875 0-20.371093-1.363281-31.183593-4.082031-21.511719-5.414062-41.8125-16.066406-60.339844-31.667969-21.003906-17.671874-46.160156-45.191406-46.671875-75.914062-.40625-24.480469 17.472656-46.152344 41.59375-50.40625 13.652344-2.410156 31.898438.261719 46.132812 23.695312 14.320313-23.566406 32.699219-26.144531 46.453126-23.640624 23.167968 4.246093 40.914062 25.101562 41.273437 48.511718.488281 31.40625-25.105469 59.621094-46.667969 77.761719-2.90625 2.445313-5.890625 4.792969-8.945312 7.03125-3.054688 2.226563-7.320313 1.566406-9.539063-1.457031-2.234375-3.039063-1.582031-7.3125 1.457031-9.542969 2.8125-2.066406 5.5625-4.226563 8.234376-6.476563 19.300781-16.234374 42.210937-41.054687 41.804687-67.101562-.257813-17.027344-13.191406-32.199219-30.085937-35.300781-15.925782-2.933594-28.621094 6.496093-37.699219 27.960937-1.066407 2.527344-3.546875 4.164063-6.289063 4.164063-2.738281 0-5.21875-1.636719-6.285156-4.164063-9.042969-21.371094-21.632812-30.785156-37.472656-28-17.582032 3.105469-30.617188 18.898438-30.316406 36.738282.429687 25.582031 22.972656 49.847656 41.808593 65.695312 16.933594 14.253906 35.398438 23.964844 54.886719 28.871094 26.929688 6.769531 50.777344 4.089844 70.851562-7.992188 38.355469-23.074218 50.941407-72.769531 51.066407-73.261718.902343-3.664063 4.609375-5.914063 8.253906-5 3.667969.898437 5.902344 4.59375 5 8.253906-.550781 2.265625-14.117187 55.734375-57.277344 81.707031-15.066406 9.070313-31.816406 13.617187-50.042969 13.617187zm0 0" fill="#602f75"/><path d="m416.425781 255.023438c0 18.542968-15.03125 33.574218-33.574219 33.574218-18.542968 0-33.574218-15.03125-33.574218-33.574218 0-18.539063 15.03125-33.570313 33.574218-33.570313 18.542969 0 33.574219 15.03125 33.574219 33.570313zm0 0" fill="#00e7ff"/><path d="m382.851562 295.425781c-22.273437 0-40.402343-18.128906-40.402343-40.402343 0-22.273438 18.128906-40.398438 40.402343-40.398438 22.273438 0 40.398438 18.125 40.398438 40.398438 0 22.273437-18.125 40.402343-40.398438 40.402343zm0-67.148437c-14.746093 0-26.746093 12-26.746093 26.746094 0 14.75 12 26.75 26.746093 26.75 14.746094 0 26.746094-12 26.746094-26.75 0-14.746094-12-26.746094-26.746094-26.746094zm0 0" fill="#602f75"/><path d="m395.480469 261.851562c-3.773438 0-6.828125-3.054687-6.828125-6.828124 0-3.199219-2.597656-5.796876-5.800782-5.796876-3.773437 0-6.824218-3.054687-6.824218-6.828124 0-3.773438 3.050781-6.824219 6.824218-6.824219 10.726563 0 19.453126 8.722656 19.453126 19.449219 0 3.773437-3.050782 6.828124-6.824219 6.828124zm0 0" fill="#602f75"/></svg>